HIERARCHY
ROOT Hips
{
  OFFSET 5.84602e-005 68.8428 3.50346
  CHANNELS 6 Xposition Yposition Zposition Zrotation Xrotation Yrotation
  JOINT Spine
  {
    OFFSET 0 8.597 -4.6522
    CHANNELS 3 Zrotation Xrotation Yrotation
    JOINT Spine1
    {
      OFFSET 0 7.8454 0.4098
      CHANNELS 3 Zrotation Xrotation Yrotation
      JOINT Spine2
      {
        OFFSET 0 9.7078 -2.1609
        CHANNELS 3 Zrotation Xrotation Yrotation
        JOINT Neck
        {
          OFFSET 0 21.8761 -0.4549
          CHANNELS 3 Zrotation Xrotation Yrotation
          JOINT Head
          {
            OFFSET 0 12.3537 3.3602
            CHANNELS 3 Zrotation Xrotation Yrotation
            End Site
            {
              OFFSET 0.0001 18.9506 0.5657
            }
          }
        }
        JOINT LeftShoulder
        {
          OFFSET 2.2086 21.1115 7.2329
          CHANNELS 3 Zrotation Xrotation Yrotation
          JOINT LeftArm
          {
            OFFSET 13.1193 3.0282 -4.8998
            CHANNELS 3 Zrotation Xrotation Yrotation
            JOINT LeftForeArm
            {
              OFFSET 27.4081 -0.0973053 -0.2375
              CHANNELS 3 Zrotation Xrotation Yrotation
              JOINT LeftHand
              {
                OFFSET 22.8641 0.0662994 -0.1369
                CHANNELS 3 Zrotation Xrotation Yrotation
                JOINT LeftHandIndex1
                {
                  OFFSET 8.8614 0.775009 2.4612
                  CHANNELS 3 Zrotation Xrotation Yrotation
                  JOINT LeftHandIndex2
                  {
                    OFFSET 3.3146 -0.808304 0.5841
                    CHANNELS 3 Zrotation Xrotation Yrotation
                    JOINT LeftHandIndex3
                    {
                      OFFSET 2.2628 -0.552002 0.3989
                      CHANNELS 3 Zrotation Xrotation Yrotation
                      End Site
                      {
                        OFFSET 1.6102 -0.4807 0.2612
                      }
                    }
                  }
                }
                JOINT LeftHandMiddle1
                {
                  OFFSET 8.9937 0.895004 0.2143
                  CHANNELS 3 Zrotation Xrotation Yrotation
                  JOINT LeftHandMiddle2
                  {
                    OFFSET 4.0984 0.0113983 -0.0242
                    CHANNELS 3 Zrotation Xrotation Yrotation
                    JOINT LeftHandMiddle3
                    {
                      OFFSET 2.2716 0.00689697 -0.0138001
                      CHANNELS 3 Zrotation Xrotation Yrotation
                      End Site
                      {
                        OFFSET 2.0404 -0.1441 0.0027
                      }
                    }
                  }
                }
                JOINT LeftHandRing1
                {
                  OFFSET 8.5234 0.597198 -2.0164
                  CHANNELS 3 Zrotation Xrotation Yrotation
                  JOINT LeftHandRing2
                  {
                    OFFSET 3.7188 -0.188293 -0.2328
                    CHANNELS 3 Zrotation Xrotation Yrotation
                    JOINT LeftHandRing3
                    {
                      OFFSET 2.1191 -0.106598 -0.1332
                      CHANNELS 3 Zrotation Xrotation Yrotation
                      End Site
                      {
                        OFFSET 1.8737 -0.2304 -0.0886
                      }
                    }
                  }
                }
                JOINT LeftHandPinky1
                {
                  OFFSET 7.9094 -0.601089 -3.4825
                  CHANNELS 3 Zrotation Xrotation Yrotation
                  JOINT LeftHandPinky2
                  {
                    OFFSET 2.2874 -0.477005 -0.6314
                    CHANNELS 3 Zrotation Xrotation Yrotation
                    JOINT LeftHandPinky3
                    {
                      OFFSET 1.6774 -0.349396 -0.4633
                      CHANNELS 3 Zrotation Xrotation Yrotation
                      End Site
                      {
                        OFFSET 1.4888 -0.4091 -0.3416
                      }
                    }
                  }
                }
                JOINT LeftHandThumb1
                {
                  OFFSET 1.833 -1.3875 1.3896
                  CHANNELS 3 Zrotation Xrotation Yrotation
                  JOINT LeftHandThumb2
                  {
                    OFFSET 3.4129 -1.121 2.5732
                    CHANNELS 3 Zrotation Xrotation Yrotation
                    JOINT LeftHandThumb3
                    {
                      OFFSET 2.2474 -0.804199 1.6192
                      CHANNELS 3 Zrotation Xrotation Yrotation
                      End Site
                      {
                        OFFSET 1.6527 -0.5689 1.1317
                      }
                    }
                  }
                }
              }
            }
          }
        }
        JOINT RightShoulder
        {
          OFFSET -2.2086 21.1115 7.2329
          CHANNELS 3 Zrotation Xrotation Yrotation
          JOINT RightArm
          {
            OFFSET -13.1216 3.0287 -4.9007
            CHANNELS 3 Zrotation Xrotation Yrotation
            JOINT RightForeArm
            {
              OFFSET -27.4081 -0.0973053 -0.2375
              CHANNELS 3 Zrotation Xrotation Yrotation
              JOINT RightHand
              {
                OFFSET -22.8641 0.0664063 -0.1369
                CHANNELS 3 Zrotation Xrotation Yrotation
                JOINT RightHandIndex1
                {
                  OFFSET -8.8614 0.774994 2.4612
                  CHANNELS 3 Zrotation Xrotation Yrotation
                  JOINT RightHandIndex2
                  {
                    OFFSET -3.3146 -0.808304 0.5841
                    CHANNELS 3 Zrotation Xrotation Yrotation
                    JOINT RightHandIndex3
                    {
                      OFFSET -2.2628 -0.552002 0.3989
                      CHANNELS 3 Zrotation Xrotation Yrotation
                      End Site
                      {
                        OFFSET -1.6102 -0.4807 0.2612
                      }
                    }
                  }
                }
                JOINT RightHandMiddle1
                {
                  OFFSET -8.9937 0.894989 0.2143
                  CHANNELS 3 Zrotation Xrotation Yrotation
                  JOINT RightHandMiddle2
                  {
                    OFFSET -4.0984 0.0113983 -0.0242
                    CHANNELS 3 Zrotation Xrotation Yrotation
                    JOINT RightHandMiddle3
                    {
                      OFFSET -2.2716 0.00691223 -0.0138001
                      CHANNELS 3 Zrotation Xrotation Yrotation
                      End Site
                      {
                        OFFSET -2.0404 -0.1441 0.0027
                      }
                    }
                  }
                }
                JOINT RightHandRing1
                {
                  OFFSET -8.5234 0.597198 -2.0164
                  CHANNELS 3 Zrotation Xrotation Yrotation
                  JOINT RightHandRing2
                  {
                    OFFSET -3.7188 -0.188309 -0.2328
                    CHANNELS 3 Zrotation Xrotation Yrotation
                    JOINT RightHandRing3
                    {
                      OFFSET -2.1191 -0.106598 -0.1332
                      CHANNELS 3 Zrotation Xrotation Yrotation
                      End Site
                      {
                        OFFSET -1.8737 -0.2304 -0.0886
                      }
                    }
                  }
                }
                JOINT RightHandPinky1
                {
                  OFFSET -7.9094 -0.601105 -3.4825
                  CHANNELS 3 Zrotation Xrotation Yrotation
                  JOINT RightHandPinky2
                  {
                    OFFSET -2.2874 -0.477005 -0.6314
                    CHANNELS 3 Zrotation Xrotation Yrotation
                    JOINT RightHandPinky3
                    {
                      OFFSET -1.6774 -0.349396 -0.4633
                      CHANNELS 3 Zrotation Xrotation Yrotation
                      End Site
                      {
                        OFFSET -1.4888 -0.4091 -0.3416
                      }
                    }
                  }
                }
                JOINT RightHandThumb1
                {
                  OFFSET -1.833 -1.38751 1.3896
                  CHANNELS 3 Zrotation Xrotation Yrotation
                  JOINT RightHandThumb2
                  {
                    OFFSET -3.41299 -1.12099 2.5732
                    CHANNELS 3 Zrotation Xrotation Yrotation
                    JOINT RightHandThumb3
                    {
                      OFFSET -2.24741 -0.804108 1.6192
                      CHANNELS 3 Zrotation Xrotation Yrotation
                      End Site
                      {
                        OFFSET -1.6527 -0.5689 1.1317
                      }
                    }
                  }
                }
              }
            }
          }
        }
      }
    }
  }
  JOINT RightUpLeg
  {
    OFFSET -9.1966 3.8861 -0.7581
    CHANNELS 3 Zrotation Xrotation Yrotation
    JOINT RightLeg
    {
      OFFSET -0.7359 -41.0265 0
      CHANNELS 3 Zrotation Xrotation Yrotation
      JOINT RightFoot
      {
        OFFSET 0 -40.2855 0
        CHANNELS 3 Zrotation Xrotation Yrotation
        JOINT RightToeBase
        {
          OFFSET 0 -5.6122 11.7359
          CHANNELS 3 Zrotation Xrotation Yrotation
          End Site
          {
            OFFSET 0 0 7.8731
          }
        }
      }
    }
  }
  JOINT LeftUpLeg
  {
    OFFSET 9.1965 3.8864 -0.7581
    CHANNELS 3 Zrotation Xrotation Yrotation
    JOINT LeftLeg
    {
      OFFSET 0.7359 -41.0268 0
      CHANNELS 3 Zrotation Xrotation Yrotation
      JOINT LeftFoot
      {
        OFFSET 0 -40.2855 0
        CHANNELS 3 Zrotation Xrotation Yrotation
        JOINT LeftToeBase
        {
          OFFSET 0 -5.6122 11.7359
          CHANNELS 3 Zrotation Xrotation Yrotation
          End Site
          {
            OFFSET 0 0 7.8731
          }
        }
      }
    }
  }
}
MOTION
Frames:	5
Frame Time:	0.0333333
-1.49923 1.3986 -2.71296 -130.024 -89.9981 179.977 -6.05897 4.66585 -2.74306 -11.9492 9.59161 -5.00086 -11.9492 9.59161 -5.00087 -7.5054 -6.50864 -18.3195 11.5823 -12.2293 31.6795 -9.7672 -0.675479 -15.5645 -108.802 -54.9409 -51.5245 -8.17801 65.965 1.24026 -37.0102 0.875894 56.8534 -6.36111e-015 -7.95139e-016 -2.38542e-015 -8.82781e-032 3.18055e-015 1.59028e-015 3.18055e-015 3.18055e-015 3.97569e-015 -6.36111e-015 -7.95139e-016 -2.38542e-015 -0.0145984 -8.73206e-005 5.03439e-006 3.18055e-015 -3.18055e-015 -0 -6.36111e-015 -7.95139e-016 -2.38542e-015 -0.0187646 -0.00117392 6.07805e-005 -6.36111e-015 4.77083e-015 1.11319e-014 -6.36111e-015 -7.95139e-016 -2.38542e-015 -0.0122639 -0.003252 0.000680973 -3.08973e-031 5.56597e-015 3.18055e-015 -6.36111e-015 -7.95139e-016 -2.38542e-015 -8.82781e-032 3.18055e-015 1.59028e-015 3.18055e-015 3.18055e-015 3.97569e-015 -11.4385 4.7825 -63.9431 -2.12764 32.134 30.7003 -45.2517 -27.6746 52.0031 -2.60132 2.12213 8.73666 -3.97569e-016 0 -3.18055e-015 0 0 -6.36111e-015 -3.53113e-031 -3.18055e-015 -6.36111e-015 -3.97569e-016 0 -3.18055e-015 0.0149828 -9.10245e-005 -2.67663e-006 7.95139e-016 -1.59028e-015 3.18055e-015 -3.97569e-016 0 -3.18055e-015 0.0189893 -0.00118909 -5.7883e-005 7.95139e-016 0 -0 -3.97569e-016 0 -3.18055e-015 0.0122646 -0.0032457 -0.000671892 3.97569e-016 -6.36111e-015 -9.54166e-015 -3.97569e-016 0 -3.18055e-015 0 0 -6.36111e-015 -3.53113e-031 -3.18055e-015 -6.36111e-015 -71.5761 -55.9802 -66.928 -9.53495 73.3773 6.39761 7.69434 11.371 2.49917 -1.7271e-006 -1.60147e-006 -1.94015e-006 74.4722 -43.3497 110.859 63.9668 79.553 -60.5581 11.2975 37.1335 -19.0723 2.10915e-006 -2.72558e-006 -5.31831e-007 
-1.49923 1.3986 -2.71296 -130.024 -89.9981 179.977 -6.06194 4.7369 -2.74365 -11.9535 9.73333 -4.99496 -11.9535 9.73334 -4.99495 -7.37314 -6.58259 -18.5006 11.6769 -12.3041 31.7062 -9.6487 -0.708469 -15.6167 -108.89 -54.8795 -51.6945 -8.17808 65.965 1.24028 -37.1264 0.564673 56.9121 -1.24677e-006 -8.60206e-007 -7.36868e-007 -6.36111e-015 -7.95139e-015 -5.56597e-015 -1.24677e-006 -8.60206e-007 -7.36868e-007 -1.24677e-006 -8.60206e-007 -7.36868e-007 -0.0146211 -8.90464e-005 1.75011e-006 -1.24674e-006 -8.60112e-007 -7.36977e-007 -1.24677e-006 -8.60206e-007 -7.36868e-007 -0.0187437 -0.00117767 6.03506e-005 -1.24674e-006 -8.60082e-007 -7.36996e-007 -1.24677e-006 -8.60206e-007 -7.36868e-007 -0.0122504 -0.00324096 0.000672734 -1.86606e-006 1.43936e-006 -1.90027e-006 -1.24677e-006 -8.60206e-007 -7.36868e-007 -6.36111e-015 -7.95139e-015 -5.56597e-015 -1.24677e-006 -8.60206e-007 -7.36868e-007 -11.2777 4.80884 -64.0989 -2.12764 32.134 30.7003 -45.2517 -27.6746 52.0031 -2.8907 1.94581 8.69651 3.97569e-016 -3.18055e-015 -3.18055e-015 -1.04836e-007 -1.74268e-008 9.64229e-009 1.19271e-015 -1.59028e-015 -0 3.97569e-016 -3.18055e-015 -3.18055e-015 0.0149788 -9.01048e-005 -2.28334e-006 -1.19271e-015 3.18055e-015 6.36111e-015 3.97569e-016 -3.18055e-015 -3.18055e-015 0.0189866 -0.00119036 -5.98786e-005 3.97569e-016 -6.36111e-015 -9.54166e-015 3.97569e-016 -3.18055e-015 -3.18055e-015 0.0122869 -0.00325269 -0.000678845 3.97569e-016 1.59028e-015 -3.18055e-015 3.97569e-016 -3.18055e-015 -3.18055e-015 -1.04836e-007 -1.74268e-008 9.64229e-009 1.19271e-015 -1.59028e-015 -0 -71.5761 -55.9802 -66.928 -9.53495 73.3773 6.39761 7.69434 11.371 2.49917 -1.7271e-006 -1.60147e-006 -1.94015e-006 74.4722 -43.3497 110.859 63.9668 79.553 -60.5581 11.2975 37.1335 -19.0723 2.10915e-006 -2.72558e-006 -5.31831e-007 
-1.49923 1.3986 -2.71296 -130.024 -89.9981 179.977 -6.06465 4.80302 -2.74421 -11.9575 9.86537 -4.98938 -11.9575 9.86538 -4.98936 -7.24087 -6.65765 -18.6816 11.7716 -12.3789 31.733 -9.53839 -0.7393 -15.6653 -108.973 -54.8222 -51.8525 -8.17804 65.965 1.24026 -37.2343 0.274479 56.966 -1.24804e-006 -8.55337e-007 -7.39086e-007 9.54166e-015 3.97569e-015 -1.59028e-015 -1.24804e-006 -8.55337e-007 -7.39086e-007 -1.24804e-006 -8.55337e-007 -7.39086e-007 -0.0146163 -9.28697e-005 -5.87245e-007 -1.82642e-006 1.45857e-006 -1.91566e-006 -1.24804e-006 -8.55337e-007 -7.39086e-007 -0.0187666 -0.00117162 5.54326e-005 -1.24801e-006 -8.55213e-007 -7.39214e-007 -1.24804e-006 -8.55337e-007 -7.39086e-007 -0.0122613 -0.00325046 0.000674898 -1.24804e-006 -8.55243e-007 -7.39144e-007 -1.24804e-006 -8.55337e-007 -7.39086e-007 9.54166e-015 3.97569e-015 -1.59028e-015 -1.24804e-006 -8.55337e-007 -7.39086e-007 -11.1278 4.83299 -64.244 -2.12764 32.134 30.7003 -45.2517 -27.6747 52.0031 -3.16036 1.78177 8.65823 1.04854e-007 1.73463e-008 -9.59701e-009 1.04854e-007 1.73463e-008 -9.59701e-009 1.04854e-007 1.73463e-008 -9.59701e-009 1.04854e-007 1.73463e-008 -9.59701e-009 0.0149874 -9.109e-005 -2.71483e-006 1.04853e-007 1.73451e-008 -9.59936e-009 1.04854e-007 1.73463e-008 -9.59701e-009 0.0190184 -0.00119249 -6.01861e-005 1.04853e-007 1.73448e-008 -9.60098e-009 1.04854e-007 1.73463e-008 -9.59701e-009 0.0122338 -0.00323896 -0.000673821 1.04853e-007 1.7346e-008 -9.60181e-009 1.04854e-007 1.73463e-008 -9.59701e-009 1.04854e-007 1.73463e-008 -9.59701e-009 1.04854e-007 1.73463e-008 -9.59701e-009 -71.5761 -55.9802 -66.928 -9.53495 73.3773 6.39761 7.69434 11.371 2.49917 -1.7271e-006 -1.60147e-006 -1.94015e-006 74.4722 -43.3497 110.859 63.9668 79.553 -60.5581 11.2975 37.1335 -19.0723 2.10915e-006 -2.72558e-006 -5.31831e-007 
-1.49923 1.3986 -2.71296 -130.024 -89.9981 179.977 -6.06728 4.86917 -2.74479 -11.9614 9.99747 -4.98375 -11.9613 9.99747 -4.98376 -7.10898 -6.7322 -18.8622 11.8664 -12.4537 31.7599 -9.42807 -0.770237 -15.7139 -109.054 -54.7647 -52.0101 -8.17803 65.965 1.24025 -37.342 -0.0158596 57.0193 1.01601e-006 1.12757e-006 3.98118e-006 2.33288e-007 -2.77115e-007 -3.23989e-006 1.2493e-006 8.50455e-007 7.41293e-007 1.01601e-006 1.12757e-006 3.98118e-006 -0.0145938 -8.35613e-005 -6.69527e-006 1.24926e-006 8.50361e-007 7.41401e-007 1.01601e-006 1.12757e-006 3.98118e-006 -0.0187444 -0.00116705 4.98254e-005 1.24926e-006 8.50331e-007 7.4142e-007 1.01601e-006 1.12757e-006 3.98118e-006 -0.012264 -0.00325371 0.000685437 1.24929e-006 8.5036e-007 7.41351e-007 1.01601e-006 1.12757e-006 3.98118e-006 2.33288e-007 -2.77115e-007 -3.23989e-006 1.2493e-006 8.50455e-007 7.41293e-007 -10.9779 4.85677 -64.3893 -2.12766 32.134 30.7003 -45.2517 -27.6746 52.0031 -3.43018 1.61785 8.61916 1.19271e-015 0 3.18055e-015 3.32582e-008 -8.56239e-007 2.11886e-008 -7.95139e-016 0 -3.18055e-015 1.19271e-015 0 3.18055e-015 0.0149861 -9.21901e-005 2.27345e-006 -0 0 3.18055e-015 1.19271e-015 0 3.18055e-015 0.019005 -0.00119257 -5.82634e-005 3.97569e-016 0 -0 1.19271e-015 0 3.18055e-015 0.0122732 -0.0032478 -0.000676144 -7.95139e-016 1.59028e-015 3.18055e-015 1.19271e-015 0 3.18055e-015 3.32582e-008 -8.56239e-007 2.11886e-008 -7.95139e-016 0 -3.18055e-015 -71.5761 -55.9802 -66.928 -9.53495 73.3773 6.39761 7.69434 11.371 2.49917 -1.7271e-006 -1.60147e-006 -1.94015e-006 74.4722 -43.3497 110.859 63.9668 79.553 -60.5581 11.2975 37.1335 -19.0723 2.10915e-006 -2.72558e-006 -5.31831e-007 
-1.49923 1.3986 -2.71296 -130.024 -89.9981 179.977 -6.06994 4.93532 -2.74531 -11.9652 10.1296 -4.9781 -11.9652 10.1295 -4.97812 -6.97754 -6.80727 -19.0425 11.9612 -12.5284 31.787 -9.31781 -0.801239 -15.7623 -109.136 -54.7071 -52.1673 -8.17807 65.9649 1.24028 -37.4495 -0.306416 57.0721 -4.98633e-007 2.34281e-006 -1.20321e-006 2.94491e-007 7.38352e-007 -7.17774e-007 3.18055e-015 1.59028e-015 -4.77083e-015 -4.98633e-007 2.34281e-006 -1.20321e-006 -0.0146256 -9.10568e-005 -2.27407e-006 -3.18055e-015 2.38542e-015 7.95139e-016 -4.98633e-007 2.34281e-006 -1.20321e-006 -0.0187448 -0.00117722 6.73916e-005 -4.41391e-032 3.18055e-015 7.95139e-016 -4.98633e-007 2.34281e-006 -1.20321e-006 -0.0122786 -0.00324768 0.000669566 -6.36111e-015 6.36111e-015 1.59028e-015 -4.98633e-007 2.34281e-006 -1.20321e-006 2.94491e-007 7.38352e-007 -7.17774e-007 3.18055e-015 1.59028e-015 -4.77083e-015 -10.8279 4.88019 -64.5346 -2.12765 32.134 30.7003 -45.2517 -27.6746 52.0031 -3.70017 1.45408 8.57931 3.97569e-016 0 -3.18055e-015 -3.97569e-016 0 -3.18055e-015 -7.95139e-016 -1.59028e-015 -0 3.97569e-016 0 -3.18055e-015 0.0149925 -9.06108e-005 9.50199e-007 -3.53113e-031 3.18055e-015 6.36111e-015 3.97569e-016 0 -3.18055e-015 0.019005 -0.00119121 -5.91818e-005 3.97569e-016 4.77083e-015 -0 3.97569e-016 0 -3.18055e-015 0.0122672 -0.00324598 -0.000676499 -3.97569e-016 -1.59028e-015 -3.18055e-015 3.97569e-016 0 -3.18055e-015 -3.97569e-016 0 -3.18055e-015 -7.95139e-016 -1.59028e-015 -0 -71.5761 -55.9802 -66.928 -9.53495 73.3773 6.39761 7.69434 11.371 2.49917 -1.7271e-006 -1.60147e-006 -1.94015e-006 74.4722 -43.3497 110.859 63.9668 79.553 -60.5581 11.2975 37.1335 -19.0723 2.10915e-006 -2.72558e-006 -5.31831e-007 
